<svg width="111" height="72" viewBox="0 0 111 72" fill="none" xmlns="http://www.w3.org/2000/svg">
<g clip-path="url(#clip0_4977_11550)">
<path fill-rule="evenodd" clip-rule="evenodd" d="M5.68688 69.4485H5.01059V67.6332H5.66324C6.39156 67.6332 6.71788 67.906 6.71788 68.522C6.71788 69.171 6.41047 69.4485 5.68688 69.4485ZM5.7862 67.0312H4.34375V71.9316H5.01059V70.0411H5.68688C6.79355 70.0411 7.40364 69.4814 7.40364 68.4609C7.40364 67.525 6.84557 67.0312 5.7862 67.0312Z" fill="black"/>
<path fill-rule="evenodd" clip-rule="evenodd" d="M10.3638 68.0047C10.4159 67.8495 10.4537 67.7179 10.4821 67.6238C10.5057 67.6991 10.5341 67.7884 10.5625 67.8919C10.6287 68.0941 10.6996 68.3292 10.7185 68.3998L11.2104 69.9376H9.74429L10.2503 68.3857C10.2645 68.3292 10.3118 68.174 10.3638 68.0047ZM10.955 67.0312H10.0233L8.44845 71.8563L8.4248 71.9316H9.11056L9.55512 70.5395H11.4043L11.8347 71.894L11.8489 71.9316H12.5488L10.9645 67.0736L10.9503 67.036L10.955 67.0312Z" fill="black"/>
<path fill-rule="evenodd" clip-rule="evenodd" d="M14.6307 67.0312H13.9639V71.9316H16.6974V71.3296H14.6307V67.0312Z" fill="black"/>
<path fill-rule="evenodd" clip-rule="evenodd" d="M19.5163 68.0047C19.5684 67.8495 19.6062 67.7179 19.6346 67.6238C19.6582 67.6991 19.6866 67.7884 19.7197 67.8919C19.7859 68.0941 19.8568 68.3292 19.8758 68.3998L20.3676 69.9376H18.9015L19.4076 68.3857C19.4217 68.3292 19.469 68.174 19.5211 68.0047H19.5163ZM20.1075 67.0312H19.1758L17.6057 71.8563L17.582 71.9316H18.2678L18.7123 70.5395H20.5662L20.9966 71.894L21.0108 71.9316H21.7107L20.1264 67.0736L20.1122 67.036L20.1075 67.0312Z" fill="black"/>
<path fill-rule="evenodd" clip-rule="evenodd" d="M24.8603 67.5656C25.3758 67.5656 25.6407 67.7302 25.8109 67.8713L25.8582 67.909L26.2744 67.4057L26.2318 67.3681C26.0568 67.2176 25.6501 66.959 24.9171 66.959C23.6307 66.959 22.8882 67.8901 22.8882 69.5126C22.8882 71.1351 23.5645 71.991 24.8414 71.991C25.6454 71.991 26.0379 71.7276 26.1987 71.5724L26.2366 71.5348L25.8629 71.0551L25.8156 71.1022C25.6265 71.2856 25.3238 71.3796 24.9171 71.3796C23.8009 71.3796 23.5692 70.3403 23.5692 69.4656C23.5692 68.2193 24.0138 67.5656 24.865 67.5656H24.8603Z" fill="black"/>
<path fill-rule="evenodd" clip-rule="evenodd" d="M28.5347 69.7448H30.2987V69.1475H28.5347V67.6332H30.5399V67.0312H27.8726V71.9316H30.6345V71.3296H28.5347V69.7448Z" fill="black"/>
<path fill-rule="evenodd" clip-rule="evenodd" d="M33.8266 69.1979C33.2969 68.958 32.8381 68.7464 32.8381 68.2714C32.8381 67.8482 33.1692 67.5754 33.68 67.5754C34.0252 67.5754 34.3137 67.6742 34.5833 67.8905L34.6306 67.9281L35.0373 67.4155L34.9947 67.3826C34.8055 67.2274 34.3894 66.9688 33.7178 66.9688C32.8381 66.9688 32.1713 67.5425 32.1713 68.3091C32.1713 69.1603 32.8712 69.4801 33.4908 69.7575C34.011 69.9927 34.4603 70.1949 34.4603 70.6558C34.4603 71.1166 34.0914 71.3988 33.5144 71.3988C32.9375 71.3988 32.5497 71.1495 32.3226 70.9614L32.2753 70.9238L31.9159 71.4082L31.8828 71.4505L31.9206 71.4882C32.0956 71.6433 32.5969 72.0055 33.4624 72.0055C34.4414 72.0055 35.1271 71.4364 35.1271 70.6228C35.1271 69.8092 34.4367 69.4801 33.8266 69.2026V69.1979Z" fill="black"/>
<path fill-rule="evenodd" clip-rule="evenodd" d="M45.1152 69.1522H42.9066V67.0312H42.2397V71.9316H42.9066V69.7542H45.1152V71.9316H45.782V67.0312H45.1152V69.1522Z" fill="black"/>
<path fill-rule="evenodd" clip-rule="evenodd" d="M50.753 69.5032C50.753 71.1774 50.0909 71.389 49.5139 71.389C48.6579 71.389 48.2606 70.773 48.2606 69.4562C48.2606 67.782 48.918 67.5656 49.495 67.5656C50.0341 67.5656 50.7577 67.7679 50.7577 69.4985L50.753 69.5032ZM49.5328 66.959C48.237 66.959 47.5796 67.8149 47.5796 69.4985C47.5796 71.1821 48.1991 71.991 49.4761 71.991C50.3699 71.991 51.4293 71.5489 51.4293 69.4515C51.4293 67.7726 50.8097 66.959 49.5328 66.959Z" fill="black"/>
<path fill-rule="evenodd" clip-rule="evenodd" d="M52.668 67.6332H53.9496V71.9316H54.6117V67.6332H55.8887V67.0312H52.668V67.6332Z" fill="black"/>
<path fill-rule="evenodd" clip-rule="evenodd" d="M58.0223 69.7448H59.7816V69.1475H58.0223V67.6332H60.0228V67.0312H57.3555V71.9316H60.1221V71.3296H58.0223V69.7448Z" fill="black"/>
<path fill-rule="evenodd" clip-rule="evenodd" d="M62.4863 67.0312H61.8242V71.9316H64.553V71.3296H62.4863V67.0312Z" fill="black"/>
<path fill-rule="evenodd" clip-rule="evenodd" d="M67.5334 69.1979C67.0038 68.958 66.545 68.7464 66.545 68.2714C66.545 67.8482 66.8761 67.5754 67.3868 67.5754C67.7321 67.5754 68.0206 67.6742 68.2901 67.8905L68.3374 67.9281L68.7442 67.4155L68.7016 67.3826C68.5124 67.2274 68.0962 66.9688 67.4199 66.9688C66.5403 66.9688 65.8735 67.5425 65.8735 68.3091C65.8735 69.1603 66.5734 69.4801 67.1929 69.7575C67.7132 69.9927 68.1625 70.1949 68.1625 70.6558C68.1625 71.1166 67.7936 71.3988 67.2166 71.3988C66.6396 71.3988 66.2565 71.1495 66.0248 70.9614L65.9775 70.9238L65.6181 71.4082L65.585 71.4505L65.6228 71.4882C65.7978 71.6433 66.2991 72.0055 67.1646 72.0055C68.1435 72.0055 68.8293 71.4364 68.8293 70.6228C68.8293 69.8092 68.1388 69.4801 67.5287 69.2026L67.5334 69.1979Z" fill="black"/>
<path fill-rule="evenodd" clip-rule="evenodd" d="M76.6136 67.6332H77.1386C77.8811 67.6332 78.1979 67.8919 78.1979 68.4938C78.1979 69.0958 77.8622 69.3591 77.1717 69.3591H76.6136V67.6332ZM77.8716 69.773C78.3918 69.6648 78.879 69.2228 78.879 68.4327C78.879 67.5015 78.3209 67.0312 77.2142 67.0312H75.9468V71.9316H76.6089V69.947H76.9305C77.2521 69.947 77.446 70.0693 77.6257 70.3749L78.4959 71.9034L78.5148 71.9316H79.3046L78.3682 70.3514C78.1932 70.0646 78.0466 69.8859 77.8716 69.7777V69.773Z" fill="black"/>
<path fill-rule="evenodd" clip-rule="evenodd" d="M81.5464 69.7448H83.3104V69.1475H81.5464V67.6332H83.5516V67.0312H80.8843V71.9316H83.6462V71.3296H81.5464V69.7448Z" fill="black"/>
<path fill-rule="evenodd" clip-rule="evenodd" d="M86.8381 69.1979C86.3085 68.958 85.8497 68.7464 85.8497 68.2714C85.8497 67.8482 86.1808 67.5754 86.6915 67.5754C87.0368 67.5754 87.3253 67.6742 87.5948 67.8905L87.6421 67.9281L88.0489 67.4155L88.0063 67.3826C87.8171 67.2274 87.4009 66.9688 86.7246 66.9688C85.845 66.9688 85.1781 67.5425 85.1781 68.3091C85.1781 69.1603 85.8781 69.4801 86.4976 69.7575C87.0179 69.9927 87.4671 70.1949 87.4671 70.6558C87.4671 71.1166 87.0983 71.3988 86.5213 71.3988C85.9443 71.3988 85.5565 71.1495 85.3295 70.9614L85.2822 70.9238L84.9228 71.4082L84.8896 71.4505L84.9275 71.4882C85.1025 71.6433 85.6038 72.0055 86.4693 72.0055C87.4482 72.0055 88.134 71.4364 88.134 70.6228C88.134 69.8092 87.4435 69.4801 86.8287 69.2026L86.8381 69.1979Z" fill="black"/>
<path fill-rule="evenodd" clip-rule="evenodd" d="M92.8116 69.5032C92.8116 71.1774 92.1495 71.389 91.5725 71.389C90.7165 71.389 90.3192 70.773 90.3192 69.4562C90.3192 67.782 90.9766 67.5656 91.5536 67.5656C92.0927 67.5656 92.8116 67.7679 92.8116 69.4985V69.5032ZM91.5914 66.959C90.2956 66.959 89.6382 67.8149 89.6382 69.4985C89.6382 71.1821 90.2577 71.991 91.5346 71.991C92.4285 71.991 93.4879 71.5489 93.4879 69.4515C93.4879 67.7726 92.8683 66.959 91.5914 66.959Z" fill="black"/>
<path fill-rule="evenodd" clip-rule="evenodd" d="M95.9613 67.6332H96.4862C97.2287 67.6332 97.5456 67.8919 97.5456 68.4938C97.5456 69.0958 97.2098 69.3591 96.5193 69.3591H95.9613V67.6332ZM97.2193 69.773C97.7395 69.6648 98.2266 69.2228 98.2266 68.4327C98.2266 67.5015 97.6686 67.0312 96.5619 67.0312H95.2944V71.9316H95.9613V69.947H96.2829C96.5997 69.947 96.7984 70.0693 96.9781 70.3749L97.8483 71.9034L97.8672 71.9316H98.657L97.7206 70.3514C97.5503 70.0646 97.399 69.8859 97.224 69.7777L97.2193 69.773Z" fill="black"/>
<path fill-rule="evenodd" clip-rule="evenodd" d="M99.5225 67.6332H100.804V71.9316H101.471V67.6332H102.748V67.0312H99.5225V67.6332Z" fill="black"/>
<path fill-rule="evenodd" clip-rule="evenodd" d="M105.67 69.1979C105.14 68.958 104.682 68.7464 104.682 68.2714C104.682 67.8482 105.013 67.5754 105.524 67.5754C105.869 67.5754 106.157 67.6742 106.427 67.8905L106.474 67.9281L106.881 67.4155L106.838 67.3826C106.649 67.2274 106.233 66.9688 105.557 66.9688C104.677 66.9688 104.01 67.5425 104.01 68.3091C104.01 69.1603 104.71 69.4801 105.33 69.7575C105.85 69.9927 106.299 70.1949 106.299 70.6558C106.299 71.1166 105.93 71.3988 105.353 71.3988C104.776 71.3988 104.389 71.1495 104.162 70.9614L104.114 70.9238L103.755 71.4082L103.722 71.4505L103.76 71.4882C103.935 71.6433 104.436 72.0055 105.301 72.0055C106.28 72.0055 106.966 71.4364 106.966 70.6228C106.966 69.8092 106.276 69.4801 105.661 69.2026L105.67 69.1979Z" fill="black"/>
<path fill-rule="evenodd" clip-rule="evenodd" d="M54.9578 5.8644C54.2484 7.33638 53.643 9.14226 53.1843 11.3432L51.6567 18.6654C47.2111 17.913 43.5932 15.3829 43.5932 11.1974C43.5932 7.6985 46.2936 4.97557 50.6115 4.97557C52.2148 4.97557 53.6714 5.29536 54.9578 5.8644ZM42.1838 24.6568C44.7708 24.6568 47.1544 25.2212 49.59 26.0018C48.9326 27.4926 48.105 28.6965 46.9983 29.5101C46.7098 29.7264 46.4024 29.9099 46.0761 30.0651C45.291 29.9945 44.4823 29.9522 43.6499 29.9522C42.094 29.9522 41.3562 30.0274 41.3562 30.0274L40.2448 33.0984C41.8528 32.4541 44.4823 31.4994 47.6888 31.4994C50.5926 31.4994 53.1607 32.1437 55.653 32.962C52.0445 35.4498 48.0388 37.5378 43.2054 37.5378C37.0951 37.5378 34.4466 34.5186 34.4466 31.1138C34.4466 29.0539 35.3689 27.3562 36.8964 26.2229C38.249 25.2212 40.084 24.6568 42.1838 24.6568ZM69.2168 6.24063C69.2168 12.8857 64.5347 16.8925 59.0912 18.3127C58.1407 18.5573 57.1711 18.7266 56.1969 18.8206C56.1969 18.8112 56.1969 18.8065 56.1969 18.7971L57.7528 11.3432C57.9799 10.2568 58.2163 9.28334 58.4622 8.40862C59.0865 9.10464 59.6067 9.8759 60.0229 10.6942C60.2547 11.1551 60.458 11.63 60.6188 12.1191L60.704 11.8934L60.9168 11.3055C60.477 10.1628 59.8148 9.06701 58.973 8.10294C58.869 7.98537 58.7649 7.8678 58.6562 7.75493C60.4202 1.95167 62.6383 0.794775 64.88 0.794775C65.8731 0.794775 66.8426 1.15689 67.6135 1.88112C68.5689 2.77466 69.212 4.22782 69.212 6.24533L69.2168 6.24063ZM77.1337 28.8611C76.3203 26.5426 74.0738 24.7086 70.5126 24.7086C67.2446 24.7086 64.2131 26.632 61.0256 28.9881C57.767 28.3062 54.9673 27.2857 52.3283 26.3451C52.6972 25.9736 53.0613 25.5692 53.416 25.1177C54.4943 23.7304 55.4497 21.9104 56.055 19.4179C62.2552 18.9147 68.3891 15.3594 69.5951 8.67668C69.737 7.90542 69.8127 7.09654 69.8127 6.24063C69.8127 5.93965 69.7938 5.65277 69.7701 5.37061C69.7465 5.10255 69.7134 4.84859 69.6661 4.59935C69.614 4.32658 69.5526 4.06323 69.4769 3.80927C69.4674 3.77165 69.458 3.72462 69.4438 3.6823C68.7107 1.42965 66.9183 0.122273 64.2983 0.122273C58.798 0.122273 56.4996 7.94775 55.7996 11.3338L54.2437 18.7924C54.1538 19.211 54.0687 19.6107 53.9788 19.9963C53.1512 23.5564 52.1722 25.8137 50.7345 27.582C50.6636 27.6666 50.5926 27.7513 50.5217 27.8312L50.5926 27.85C51.0183 27.5302 51.4486 27.1728 51.879 26.7731C54.4943 27.6901 57.261 28.7012 60.4391 29.4161C59.1102 30.4131 57.7528 31.4665 56.334 32.4776C53.2836 31.5135 50.2616 30.5447 46.8801 30.1403C48.105 29.5383 49.1313 28.7718 50.0109 27.7278C51.5905 25.856 52.6924 23.0908 53.5958 18.7877L55.1517 11.3338C56.7975 3.42364 59.7392 0.902939 62.0187 0.0376225L61.962 0C59.427 0.5032 57.0245 1.96577 55.2416 5.32358C55.0666 5.24363 54.8869 5.17309 54.7071 5.10255C54.6882 5.09784 54.674 5.08844 54.6599 5.08374C54.6173 5.06963 54.57 5.05552 54.5274 5.03671C53.3498 4.61816 52.0351 4.38302 50.6163 4.38302C49.8832 4.38302 49.1927 4.45826 48.5543 4.59464C45.0877 5.33769 43.0068 7.96185 43.0068 11.1974C43.0068 15.745 46.8328 18.4444 51.5432 19.2345C51.0466 21.5718 50.5264 23.7116 49.8123 25.4892C47.3057 24.6756 44.8701 24.0643 42.1933 24.0643C40.0887 24.0643 38.2254 24.6004 36.8019 25.5598C34.9716 26.7919 33.8555 28.7247 33.8555 31.1185C33.8555 34.8572 36.6883 38.1351 43.2054 38.1351C48.3935 38.1351 52.6121 35.8495 56.3671 33.2112C60.4344 34.5986 64.3645 36.3339 69.3114 36.3339C73.6245 36.3339 75.923 34.1048 76.4054 31.7675L76.3486 31.7487C75.5872 33.2583 73.109 34.8948 68.7959 34.8948C64.4827 34.8948 60.6661 33.8508 57.0529 32.7221C58.4954 31.6781 59.8716 30.6012 61.21 29.5995C63.1538 29.9945 65.2536 30.272 67.571 30.3472L67.7932 29.7782C65.6225 29.7311 63.6503 29.4913 61.8201 29.148C64.7617 26.9941 67.552 25.3011 70.5126 25.3011C73.6813 25.3011 75.6818 26.8954 76.481 28.9129C76.7459 29.5854 76.883 30.3049 76.883 31.0291C76.883 34.6926 73.8279 36.9547 69.387 36.9547C64.128 36.9547 60.4628 35.0641 57.9609 34.3258L57.942 34.3822C61.0161 35.7649 65.7171 38.342 70.1248 38.342C74.9771 38.342 77.4742 35.1582 77.4742 30.9069C77.4742 30.2108 77.3607 29.5195 77.129 28.8705L77.1337 28.8611Z" fill="black"/>
<path fill-rule="evenodd" clip-rule="evenodd" d="M11.84 50.6278L11.3103 47.9237H0.877371L0.333496 50.6278L0.499023 50.7125L1.40706 49.5603C2.13065 48.6573 2.40968 48.4222 3.19475 48.4222H4.78381V56.9672L3.17583 57.24V57.5033H9.1017V57.24L7.49845 56.9672V48.4222H8.97874C9.75908 48.4222 10.0239 48.6573 10.7475 49.5603L11.6697 50.6984L11.84 50.6325V50.6278ZM23.5735 52.2785H18.1064V48.4457L19.6103 48.1871V47.919H13.9067V48.1871L15.4012 48.4457V56.9625L13.9067 57.2353V57.4986H19.6103V57.2353L18.1064 56.9625V52.7723H23.5735V56.9625L22.079 57.2353V57.4986H27.7826V57.2353L26.2881 56.9625V48.4457L27.7826 48.1871V47.919H22.079V48.1871L23.5735 48.4457V52.2785ZM39.8661 47.9237H30.6581V48.1918L32.1525 48.4504V56.9672L30.6581 57.24V57.5033H40.5187L40.9349 54.5641L40.7836 54.5123L39.4594 56.2006C39.029 56.7415 38.8445 56.9907 37.9365 56.9907H34.8719V52.871H35.2786C36.9386 52.871 37.648 54.7851 37.648 54.7851H37.7142C37.7142 54.7851 37.4778 53.0121 36.8204 52.65C37.4636 52.3584 37.7142 50.5573 37.7142 50.5573H37.648C37.648 50.5573 36.8961 52.4572 35.2786 52.4572H34.8719V48.4222H37.1609C38.0926 48.4222 38.3622 48.6714 38.9344 49.311L40.1026 50.5996L40.2302 50.4867L39.8661 47.9237ZM60.259 54.5688L60.1171 54.517L58.8024 56.2053C58.372 56.7462 58.1876 56.9954 57.2795 56.9954H54.4088V48.4504L55.9033 48.1918V47.9237H50.1855V48.1918L51.6942 48.4504V56.9672L50.1855 57.24V57.5033H59.8665L60.259 54.5641V54.5688ZM71.4723 47.9237H62.2643V48.1918L63.754 48.4504V56.9672L62.2643 57.24V57.5033H72.1249L72.5459 54.5641L72.3898 54.5123L71.0656 56.2006C70.6305 56.7415 70.4508 56.9907 69.5427 56.9907H66.4734V52.871H66.8801C68.5401 52.871 69.2495 54.7851 69.2495 54.7851H69.3204C69.3204 54.7851 69.084 53.0121 68.4266 52.65C69.0698 52.3584 69.3204 50.5573 69.3204 50.5573H69.2495C69.2495 50.5573 68.4975 52.4572 66.8801 52.4572H66.4734V48.4222H68.7624C69.6988 48.4222 69.9636 48.6714 70.5359 49.311L71.704 50.5996L71.827 50.4867L71.4676 47.9237H71.4723ZM84.5962 47.9237H75.3882V48.1918L76.8779 48.4504V56.9672L75.3882 57.24V57.5033H85.2489L85.6698 54.5641L85.5184 54.5123L84.1895 56.2006C83.7591 56.7415 83.5747 56.9907 82.6714 56.9907H79.602V52.871H80.0088C81.6688 52.871 82.3782 54.7851 82.3782 54.7851H82.4491C82.4491 54.7851 82.2126 53.0121 81.5553 52.65C82.1937 52.3584 82.4491 50.5573 82.4491 50.5573H82.3782C82.3782 50.5573 81.6262 52.4572 80.0088 52.4572H79.602V48.4222H81.891C82.8227 48.4222 83.0876 48.6714 83.6598 49.311L84.8327 50.5996L84.9557 50.4867L84.5962 47.9237ZM98.5714 54.5688L98.4343 54.517L97.1195 56.2053C96.6892 56.7462 96.5047 56.9954 95.5967 56.9954H92.726V48.4504L94.2157 48.1918V47.9237H88.4979V48.1918L90.0019 48.4504V56.9672L88.4979 57.24V57.5033H98.1742L98.562 54.5641L98.5714 54.5688ZM109.714 56.8967L106.049 47.8438H104.039L100.402 56.8308L99.2714 57.2447V57.508H102.147V57.2447L101.002 56.8872L102.147 53.9856H105.618L106.777 56.9672L105.23 57.24V57.5033H111.005V57.24L109.718 56.8967H109.714ZM105.405 53.4824H102.336L103.859 49.612H103.882L105.405 53.4824Z" fill="black"/>
</g>
<defs>
<clipPath id="clip0_4977_11550">
<rect width="110.667" height="72" fill="white" transform="translate(0.333496)"/>
</clipPath>
</defs>
</svg>
